Coordinates
version=1
nRows=12
nColumns=38
inDegrees=yes

Units are S.I. units (second, meters, Newtons, ...)
Angles are in degrees.

endheader
time	pelvis_tilt	pelvis_list	pelvis_rotation	pelvis_tx	pelvis_ty	pelvis_tz	hip_flexion_r	hip_adduction_r	hip_rotation_r	knee_angle_r	ankle_angle_r	subtalar_angle_r	mtp_angle_r	hip_flexion_l	hip_adduction_l	hip_rotation_l	knee_angle_l	ankle_angle_l	subtalar_angle_l	mtp_angle_l	lumbar_extension	lumbar_bending	lumbar_rotation	arm_flex_r	arm_add_r	arm_rot_r	elbow_flex_r	pro_sup_r	wrist_flex_r	wrist_dev_r	arm_flex_l	arm_add_l	arm_rot_l	elbow_flex_l	pro_sup_l	wrist_flex_l	wrist_dev_l
      0.51000000	     -1.04546200	      0.54506463	     -3.56510803	     -0.15678265	      0.97097079	     -0.24141101	     -5.09909566	     -4.22211669	      4.92186925	      4.33491596	      5.93537314	     -8.46932782	      0.00000000	     -6.34889573	     -2.66900124	     -2.73588621	      4.52304265	      5.49154478	    -14.81069726	      0.00000000	      2.36633298	     -0.38594150	     -2.24927819	     -7.19351153	     -2.40873373	      1.26622830	     21.78319113	     44.99862249	      0.00000000	      0.00000000	    -10.24104806	     -6.65738728	      3.40137515	     23.89646130	     44.99862249	      0.00000000	      0.00000000
      0.52000000	     -0.93315457	      0.55844883	     -3.58648227	     -0.15676146	      0.97111770	     -0.24143769	     -5.26519256	     -4.26632019	      5.35009053	      4.43036161	      5.72460734	     -9.10181461	      0.00000000	     -6.49547930	     -2.64263107	     -2.75276403	      4.56285091	      5.49201844	    -14.78192994	      0.00000000	      2.24414468	     -0.40091329	     -2.22930091	     -6.71093260	     -2.31523984	      1.41760531	     20.52512115	     44.99872211	      0.00000000	      0.00000000	     -9.80440839	     -6.56949831	      3.54253182	     22.71900595	     44.99872211	      0.00000000	      0.00000000
      0.53000000	     -0.91672459	      0.53644675	     -3.55345472	     -0.15673253	      0.97117406	     -0.24148896	     -5.28980226	     -4.23579564	      5.09567758	      4.42322058	      5.85037475	     -8.71035918	      0.00000000	     -6.52311919	     -2.67184147	     -2.59593791	      4.59023780	      5.34762330	    -15.03571411	      0.00000000	      2.22106665	     -0.37490799	     -2.27084491	     -6.76088506	     -2.30295043	      1.17622579	     20.72545041	     44.99890812	      0.00000000	      0.00000000	     -9.83543698	     -6.56614991	      3.31479558	     22.93970373	     44.99890812	      0.00000000	      0.00000000
      0.54000000	     -1.09100393	      0.54200072	     -3.55292409	     -0.15688659	      0.97093600	     -0.24149036	     -5.01620115	     -4.22079953	      4.91232273	      4.28098374	      5.98035423	     -8.35963283	      0.00000000	     -6.27032569	     -2.68041167	     -2.74174062	      4.47708578	      5.57423540	    -14.70057259	      0.00000000	      2.42872165	     -0.38179536	     -2.22812791	     -7.19585692	     -2.38675904	      1.15076741	     21.78576932	     44.99898068	      0.00000000	      0.00000000	    -10.26578823	     -6.65923393	      3.22142548	     23.98295555	     44.99898068	      0.00000000	      0.00000000
      0.55000000	     -0.93620871	      0.54676095	     -3.57059341	     -0.15683175	      0.97113421	     -0.24151055	     -5.24649142	     -4.24605543	      5.10734409	      4.40502732	      5.83136552	     -8.74026531	      0.00000000	     -6.50042751	     -2.65764839	     -2.51640117	      4.59615281	      5.33777091	    -15.17987943	      0.00000000	      2.24015889	     -0.38621094	     -2.25053275	     -6.70585900	     -2.30892249	      1.42524337	     20.53483351	     44.99908370	      0.00000000	      0.00000000	     -9.79039567	     -6.57593597	      3.52783424	     22.70483480	     44.99908370	      0.00000000	      0.00000000
      0.56000000	     -0.92943981	      0.52506920	     -3.56175267	     -0.15684967	      0.97118813	     -0.24152858	     -5.15771067	     -4.21808890	      5.13614034	      4.21542635	      5.92571724	     -8.74245901	      0.00000000	     -6.49631785	     -2.68293205	     -2.57304373	      4.57235398	      5.39887372	    -15.04077313	      0.00000000	      2.22912275	     -0.35448944	     -2.25617005	     -6.15932416	     -2.76466827	      7.66560552	     18.26635434	     44.99957021	      0.00000000	      0.00000000	     -9.06091571	     -7.09851629	     10.30120481	     20.02146142	     44.99957021	      0.00000000	      0.00000000
      0.57000000	     -0.92619511	      0.54640876	     -3.57827182	     -0.15689487	      0.97116852	     -0.24156444	     -5.24500710	     -4.25015734	      5.08859728	      4.39283205	      5.81230926	     -8.73485664	      0.00000000	     -6.51235394	     -2.65307227	     -2.56329925	      4.60101067	      5.35933465	    -15.09569076	      0.00000000	      2.22718942	     -0.37210485	     -2.25073075	     -6.21123187	     -2.69568615	      6.71819712	     18.56890731	     44.99962687	      0.00000000	      0.00000000	     -9.17539489	     -7.03722393	      9.29992079	     20.43571928	     44.99962687	      0.00000000	      0.00000000
      0.58000000	     -0.85774883	      0.53528273	     -3.57296349	     -0.15682695	      0.97128409	     -0.24157093	     -5.33021351	     -4.23402164	      4.71048797	      4.39259849	      5.97327967	     -8.10093347	      0.00000000	     -6.60130434	     -2.65531592	     -2.68848354	      4.61581294	      5.39414920	    -14.87523094	      0.00000000	      2.15831412	     -0.36488341	     -2.26552433	     -6.56373208	     -2.77164678	      6.18277210	     19.66310080	     44.99966150	      0.00000000	      0.00000000	     -9.53737694	     -7.12286170	      8.67465622	     21.55103058	     44.99966150	      0.00000000	      0.00000000
      0.59000000	     -0.93888714	      0.53866479	     -3.57227878	     -0.15696230	      0.97115307	     -0.24160745	     -5.23106663	     -4.24229908	      5.08654791	      4.39946577	      5.79594729	     -8.71215845	      0.00000000	     -6.49839014	     -2.65964064	     -2.53921325	      4.60731938	      5.34354213	    -15.11330491	      0.00000000	      2.25236644	     -0.35727192	     -2.27631465	     -6.36169001	     -2.62564962	      5.46383819	     19.17973183	     44.99969741	      0.00000000	      0.00000000	     -9.33749260	     -6.96432512	      7.94780573	     21.15119110	     44.99969741	      0.00000000	      0.00000000
      0.60000000	     -0.93277366	      0.54340427	     -3.58402725	     -0.15699319	      0.97116008	     -0.24163756	     -5.23314330	     -4.25223413	      5.08200282	      4.39572864	      5.82122395	     -8.70524875	      0.00000000	     -6.49790522	     -2.65187717	     -2.56756828	      4.59780040	      5.35972252	    -15.08892787	      0.00000000	      2.25114226	     -0.36173693	     -2.25107780	     -6.41634893	     -2.55585971	      4.67049608	     19.37300582	     44.99974351	      0.00000000	      0.00000000	     -9.43510104	     -6.89650465	      7.09651332	     21.37792759	     44.99974351	      0.00000000	      0.00000000
      0.61000000	     -0.92836684	      0.55230996	     -3.58190997	     -0.15702601	      0.97115615	     -0.24168231	     -5.24987633	     -4.26781901	      5.14928010	      4.42498176	      5.78263248	     -8.81956694	      0.00000000	     -6.49894892	     -2.64055798	     -2.55753115	      4.59370110	      5.35130489	    -15.10734013	      0.00000000	      2.24915458	     -0.36713815	     -2.26366527	     -6.59937125	     -2.41970258	      2.84476202	     20.11321093	     44.99981143	      0.00000000	      0.00000000	     -9.67499433	     -6.75142503	      5.16373551	     22.26016284	     44.99981143	      0.00000000	      0.00000000
      0.62000000	     -1.13256314	      0.52909804	     -3.58348568	     -0.15717265	      0.97087364	     -0.24168328	     -4.94885873	     -4.21735401	      4.80078389	      4.28123706	      5.99168727	     -8.20933866	      0.00000000	     -6.21140006	     -2.68406873	     -2.67125457	      4.47732487	      5.50209478	    -14.86183738	      0.00000000	      2.48499653	     -0.32097944	     -2.25423739	     -7.20532669	     -2.53862169	      2.70713552	     21.59728817	     44.99982683	      0.00000000	      0.00000000	    -10.25615145	     -6.87995781	      4.94663882	     23.69724606	     44.99982683	      0.00000000	      0.00000000
